{"title":"La Fille De Monaco(2009)[DivX][SUBs.Eng+Gr]Omifast Greek","uid":5071646,"size":768032956,"categoryP":"video","categoryS":"movies","magnet":"?xt=urn:btih:cec6d7dffe4a0e0e7ae6bd2492fa17b2e6f5f80a&amp;dn=La+Fille+De+Monaco%282009%29%5BDivX%5D%5BSUBs.Eng%2BGr%5DOmifast+Greek&amp;tr=udp%3A%2F%2Ftracker.openbittorrent.com%3A80&amp;tr=udp%3A%2F%2Fopen.demonii.com%3A1337&amp;tr=udp%3A%2F%2Ftracker.coppersurfer.tk%3A6969&amp;tr=udp%3A%2F%2Fexodus.desync.com%3A6969","seeders":1,"leechers":1,"uploader":"OmifastGR","files":-1,"time":1251459239,"description":"Optional English and Greek Subtitles\n\nUse DivX7 player to turn on the subtitles on PC.\nUse TV control for your television.\n\nMovie Sample, English and Greek Info.txt Included\n\n----------------------------------------------------------------\n\nThe Girl From Monaco (2009) &lt;a href=&quot;\nhttp://www.imdb.com/title/tt1139800/&quot; rel=&quot;nofollow&quot; target=&quot;_NEW&quot;&gt;\nhttp://www.imdb.com/title/tt1139800/&lt;/a&gt;\n\nA brilliant and neurotic attorney goes to Monaco to defend a famous criminal. But, instead of focusing on the case, he falls for a beautiful she-devil, who turns him into a complete wreck. Hopefully, his zealous bodyguard will step in and put everything back in order. Or will he? \n\nChristophe Vandevelde, Francisca Viudes\n\n-------------------------------------------------------------------\n\nFormat                           : DivX\nFormat/Info                      : Hack of AVI\nFile size                        : 704 MiB\nDuration                         : 1h 30mn\nOverall bit rate                 : 1 090 Kbps\n\nVideo\nID                               : 0\nFormat                           : MPEG-4 Visual\nFormat profile                   : AdvancedSimple@L5\nFormat settings, BVOP            : Yes\nFormat settings, QPel            : No\nFormat settings, GMC             : No warppoints\nFormat settings, Matrix          : Default (H.263)\nCodec ID                         : XVID\nCodec ID/Hint                    : XviD\nDuration                         : 1h 30mn\nBit rate                         : 940 Kbps\nWidth                            : 576 pixels\nHeight                           : 240 pixels\nDisplay aspect ratio             : 2.40:1\nFrame rate                       : 25.000 fps\nResolution                       : 24 bits\nColorimetry                      : 4:2:0\nScan type                        : Progressive\nBits/(Pixel*Frame)               : 0.272\nStream size                      : 607 MiB (86%)\nTitle                            : Video\nWriting library                  : XviD 1.1.2 (UTC 2006-11-01)\n\nAudio\nID                               : 1\nFormat                           : MPEG Audio\nFormat version                   : Version 1\nFormat profile                   : Layer 3\nCodec ID                         : 55\nCodec ID/Hint                    : MP3\nDuration                         : 1h 30mn\nBit rate mode                    : Variable\nBit rate                         : 131 Kbps\nNominal bit rate                 : 128 Kbps\nChannel(s)                       : 2 channels\nSampling rate                    : 48.0 KHz\nResolution                       : 16 bits\nStream size                      : 84.7 MiB (12%)\nAlignment                        : Aligned on interleaves\nInterleave, duration             : 24 ms (0.60 video frame)\nInterleave, preload duration     : 134 ms\nTitle                            : Audio\nWriting library                  : LAME3.90.\nEncoding settings                : -m j -V 4 -q 2 -lowpass 17.6 --abr 128\n\nText #1\nFormat                           : DivX Subtitle\nCodec ID                         : DXSB\nCodec ID/Info                    : Subtitle in AVI from DivX networks\nWidth                            : 720 pixels\nHeight                           : 576 pixels\nResolution                       : 4 bits\nStream size                      : 2.10 MiB (0%)\nTitle                            : Subtitle - el;02\n\nText #2\nFormat                           : DivX Subtitle\nCodec ID                         : DXSB\nCodec ID/Info                    : Subtitle in AVI from DivX networks\nWidth                            : 720 pixels\nHeight                           : 576 pixels\nResolution                       : 4 bits\nStream size                      : 2.17 MiB (0%)\nTitle                            : Subtitle - en;02\n\n--------------------------------------------------------------------------\n    &lt;a href=&quot;\nhttp://thepiratebay.se/user/OmifastGR&quot; rel=&quot;nofollow&quot; target=&quot;_NEW&quot;&gt;\nhttp://thepiratebay.se/user/OmifastGR&lt;/a&gt;\n\n!","torrent":{"xt":"urn:btih:cec6d7dffe4a0e0e7ae6bd2492fa17b2e6f5f80a","amp;dn":"La+Fille+De+Monaco%282009%29%5BDivX%5D%5BSUBs.Eng%2BGr%5DOmifast+Greek","amp;tr":["udp%3A%2F%2Ftracker.openbittorrent.com%3A80","udp%3A%2F%2Fopen.demonii.com%3A1337","udp%3A%2F%2Ftracker.coppersurfer.tk%3A6969","udp%3A%2F%2Fexodus.desync.com%3A6969"],"infoHash":"cec6d7dffe4a0e0e7ae6bd2492fa17b2e6f5f80a","infoHashBuffer":{"type":"Buffer","data":[206,198,215,223,254,74,14,14,122,230,189,36,146,250,23,178,230,245,248,10]},"announce":[],"urlList":[]}}